# xmcd
#
# Track frame offsets:
#  150
#  27383
#  47099
#  66246
#  83912
#  104973
#  125886
#  145633
#  171578
#  194415
#
# Disc length: 2857 seconds
#
# Revision: 0
# Processed by: cddbd v1.4PL0 Copyright (c) Steve Scherf et al.
# Submitted via: AltoMP3_Maker 3.0
#
DISCID=9d0b270a
DTITLE=Linet - Selam
DYEAR=1900
DGENRE=
TTITLE0=Seytan Diyor Ki
TTITLE1=Akilli Ol
TTITLE2=Eller Düsman
TTITLE3=Yüregimi Yorma
TTITLE4=Eyvallah
TTITLE5=Ölümsüz Ask
TTITLE6=Dur Orda Kalsin
TTITLE7=Son Fasil
TTITLE8=Gurur Duyarim
TTITLE9=Kralim
EXTD=
EXTT0=
EXTT1=
EXTT2=
EXTT3=
EXTT4=
EXTT5=
EXTT6=
EXTT7=
EXTT8=
EXTT9=
PLAYORDER=
